<svg width="0" height="0" class="hidden">
  <symbol xmlns="http://www.w3.org/2000/svg" viewBox="0 0 40 40" id="fb">
    <path fill-rule="evenodd" clip-rule="evenodd" d="M20 40c11.046 0 20-8.954 20-20S31.046 0 20 0 0 8.954 0 20s8.954 20 20 20z" fill="#4267B2"></path>
    <path fill-rule="evenodd" clip-rule="evenodd" d="M24.623 11.004L22.225 11c-2.695 0-4.436 1.739-4.436 4.43v2.042h-2.412a.372.372 0 00-.377.367v2.96c0 .203.169.367.377.367h2.412v7.467c0 .203.168.367.377.367h3.146a.372.372 0 00.378-.367v-7.467h2.82a.372.372 0 00.377-.367v-2.96c0-.097-.04-.19-.11-.26a.383.383 0 00-.267-.107h-2.82v-1.731c0-.832.203-1.255 1.317-1.255h1.616a.372.372 0 00.377-.367V11.37a.372.372 0 00-.377-.367z" fill="#fff"></path>
  </symbol>
  <symbol xmlns="http://www.w3.org/2000/svg" viewBox="0 0 40 40" id="inst">
    <path fill-rule="evenodd" clip-rule="evenodd" d="M20 40c11.046 0 20-8.954 20-20S31.046 0 20 0 0 8.954 0 20s8.954 20 20 20z" fill="#1DA1F2"></path>
    <path fill-rule="evenodd" clip-rule="evenodd" d="M28.979 14.363a.088.088 0 00-.105-.024 7.158 7.158 0 01-1.687.516 3.777 3.777 0 001.317-1.867.09.09 0 00-.03-.098.089.089 0 00-.101-.008 7.177 7.177 0 01-2.245.875 3.745 3.745 0 00-2.7-1.157c-2.066 0-3.746 1.696-3.746 3.78 0 .253.024.503.072.745A10.298 10.298 0 0112.4 13.31a.09.09 0 00-.147.012 3.806 3.806 0 00-.506 1.9 3.79 3.79 0 001.41 2.958 3.556 3.556 0 01-1.307-.426.088.088 0 00-.088 0 .09.09 0 00-.045.077v.048a3.79 3.79 0 002.633 3.612 3.57 3.57 0 01-1.245-.018.09.09 0 00-.102.115 3.752 3.752 0 003.251 2.614 7.155 7.155 0 01-4.292 1.412c-.287 0-.577-.017-.861-.051a.09.09 0 00-.095.059.09.09 0 00.036.106 10.38 10.38 0 005.653 1.673c6.568 0 10.492-5.385 10.492-10.591 0-.145-.002-.29-.008-.433a7.51 7.51 0 001.807-1.905.091.091 0 00-.006-.108z" fill="#fff"></path>
  </symbol>
  <symbol xmlns="http://www.w3.org/2000/svg" viewBox="0 0 40 40" id="tw">
    <path fill-rule="evenodd" clip-rule="evenodd" d="M20 40c11.046 0 20-8.954 20-20S31.046 0 20 0 0 8.954 0 20s8.954 20 20 20z" fill="#262626"></path>
    <path fill-rule="evenodd" clip-rule="evenodd" d="M20 11.5c2.308 0 2.598.01 3.505.051.904.041 1.522.185 2.063.395a4.165 4.165 0 011.505.98c.473.473.764.947.98 1.506.21.54.355 1.159.396 2.063.041.907.051 1.197.051 3.505s-.01 2.598-.051 3.505c-.041.904-.185 1.522-.395 2.063a4.167 4.167 0 01-.98 1.505 4.167 4.167 0 01-1.506.98c-.54.21-1.159.355-2.064.396-.906.041-1.196.051-3.504.051s-2.598-.01-3.505-.051c-.904-.041-1.522-.185-2.063-.395a4.167 4.167 0 01-1.505-.98 4.165 4.165 0 01-.98-1.506c-.21-.54-.355-1.159-.396-2.064-.041-.906-.051-1.196-.051-3.504s.01-2.598.051-3.505c.041-.904.185-1.522.395-2.063a4.165 4.165 0 01.98-1.505 4.165 4.165 0 011.506-.98c.54-.21 1.159-.355 2.063-.396.907-.041 1.197-.051 3.505-.051zm-.003 11.33a2.833 2.833 0 100-5.665 2.833 2.833 0 000 5.665zm0-7.196a4.363 4.363 0 110 8.727 4.363 4.363 0 010-8.727zm5.859-.262a1.039 1.039 0 11-2.078 0 1.039 1.039 0 012.078 0z" fill="#fff"></path>
  </symbol>
  <symbol xmlns="http://www.w3.org/2000/svg" viewBox="0 0 40 40" id="не">
    <path fill-rule="evenodd" clip-rule="evenodd" d="M20 40c11.046 0 20-8.954 20-20S31.046 0 20 0 0 8.954 0 20s8.954 20 20 20z" fill="red"></path>
    <path fill-rule="evenodd" clip-rule="evenodd" d="M20 12.8c-2.898 0-6.66.73-6.66.73l-.009.01A2.77 2.77 0 0011 16.277v7.445a2.778 2.778 0 002.338 2.743l.003.004s3.761.731 6.659.731c2.898 0 6.66-.73 6.66-.73A2.78 2.78 0 0029 23.722v-7.446a2.778 2.778 0 00-2.338-2.744C26.66 13.53 22.898 12.8 20 12.8zm-1.8 4.05L23.6 20l-5.4 3.15v-6.3z" fill="#fff"></path>
  </symbol>
  <symbol xmlns="http://www.w3.org/2000/svg"  id="Bookmark">
    <path fill-rule="evenodd" clip-rule="evenodd" d="M2 0h10a2 2 0 012 2v16l-6.905-5L0 18V2a2 2 0 012-2z"></path>
  </symbol>
</svg>